<?xml version="1.0" encoding="UTF-8" standalone="no" ?>
<!DOCTYPE svg PUBLIC "-//W3C//DTD SVG 1.1//EN" "http://www.w3.org/Graphics/SVG/1.1/DTD/svg11.dtd">
<svg xmlns="http://www.w3.org/2000/svg" xmlns:xlink="http://www.w3.org/1999/xlink" version="1.1" width="1080" height="1080" viewBox="0 0 1080 1080" xml:space="preserve">
<desc>Created with Fabric.js 5.2.4</desc>
<defs>
</defs>
<g transform="matrix(1 0 0 1 540 540)" id="6e4e4472-21d8-41d6-8a8e-6b98058ebed9"  >
<rect style="stroke: none; stroke-width: 1; stroke-dasharray: none; stroke-linecap: butt; stroke-dashoffset: 0; stroke-linejoin: miter; stroke-miterlimit: 4; fill: rgb(255,255,255); fill-rule: nonzero; opacity: 1; visibility: hidden;" vector-effect="non-scaling-stroke"  x="-540" y="-540" rx="0" ry="0" width="1080" height="1080" />
</g>
<g transform="matrix(1 0 0 1 540 540)" id="bb2c8ce1-cc75-4277-a230-b86640d4786f"  >
</g>
<g transform="matrix(0.53 0 0 0.53 540 540)"  >
<g style=""   >
		<g transform="matrix(1.93 0 0 1.93 -991.1 159.94)" id="line1"  >
<path style="stroke: none; stroke-width: 1; stroke-dasharray: none; stroke-linecap: butt; stroke-dashoffset: 0; stroke-linejoin: miter; stroke-miterlimit: 4; fill: rgb(113,127,177); fill-rule: nonzero; opacity: 1;" vector-effect="non-scaling-stroke"  transform=" translate(-21.1, 25.2)" d="M 6.552 -1.368 C 6.552 -0.648 7.128 0 7.92 0 L 34.272 0 C 35.064 0 35.64 -0.648 35.64 -1.368 L 35.64 -7.272 C 35.64 -7.992 35.064 -8.64 34.272 -8.64 L 15.912 -8.64 L 15.912 -49.032 C 15.912 -49.752 15.264 -50.4 14.544 -50.4 L 7.92 -50.4 C 7.128 -50.4 6.552 -49.752 6.552 -49.032 Z" stroke-linecap="round" />
</g>
		<g transform="matrix(1.93 0 0 1.93 -839.79 160.64)" id="line1"  >
<path style="stroke: none; stroke-width: 1; stroke-dasharray: none; stroke-linecap: butt; stroke-dashoffset: 0; stroke-linejoin: miter; stroke-miterlimit: 4; fill: rgb(113,127,177); fill-rule: nonzero; opacity: 1;" vector-effect="non-scaling-stroke"  transform=" translate(-99.53, 24.84)" d="M 79.481 -19.08 C 79.481 -8.136 88.193 0.72 99.497 0.72 C 110.873 0.72 119.585 -8.136 119.585 -19.08 L 119.585 -49.032 C 119.585 -49.752 118.937 -50.4 118.217 -50.4 L 111.377 -50.4 C 110.585 -50.4 110.009 -49.752 110.009 -49.032 L 110.009 -19.512 C 110.009 -13.464 105.761 -8.64 99.497 -8.64 C 93.233 -8.64 89.057 -13.464 89.057 -19.584 L 89.057 -49.032 C 89.057 -49.752 88.481 -50.4 87.689 -50.4 L 80.849 -50.4 C 80.129 -50.4 79.481 -49.752 79.481 -49.032 Z" stroke-linecap="round" />
</g>
		<g transform="matrix(1.93 0 0 1.93 -668.61 159.94)" id="line1"  >
<path style="stroke: none; stroke-width: 1; stroke-dasharray: none; stroke-linecap: butt; stroke-dashoffset: 0; stroke-linejoin: miter; stroke-miterlimit: 4; fill: rgb(113,127,177); fill-rule: nonzero; opacity: 1;" vector-effect="non-scaling-stroke"  transform=" translate(-188.27, 25.2)" d="M 166.306 -25.128 C 166.306 -10.728 177.898 0.72 192.298 0.72 C 198.706 0.72 204.898 -1.512 209.794 -6.264 C 210.298 -6.768 210.442 -7.704 209.866 -8.208 L 205.402 -12.816 C 204.97 -13.248 204.178 -13.32 203.602 -12.816 C 200.578 -10.368 196.906 -8.712 192.586 -8.712 C 183.37 -8.712 176.458 -16.344 176.458 -25.344 C 176.458 -34.416 183.298 -42.12 192.514 -42.12 C 196.546 -42.12 200.578 -40.536 203.602 -37.872 C 204.178 -37.296 204.898 -37.296 205.402 -37.872 L 209.794 -42.408 C 210.37 -42.984 210.37 -43.848 209.722 -44.424 C 204.826 -48.816 199.57 -51.12 192.298 -51.12 C 177.898 -51.12 166.306 -39.528 166.306 -25.128 Z" stroke-linecap="round" />
</g>
		<g transform="matrix(1.93 0 0 1.93 -502.18 159.25)" id="line1"  >
<path style="stroke: none; stroke-width: 1; stroke-dasharray: none; stroke-linecap: butt; stroke-dashoffset: 0; stroke-linejoin: miter; stroke-miterlimit: 4; fill: rgb(113,127,177); fill-rule: nonzero; opacity: 1;" vector-effect="non-scaling-stroke"  transform=" translate(-274.55, 25.56)" d="M 251.906 0 L 258.17 0 C 259.322 0 259.97 -0.72 260.258 -1.44 L 263.786 -9.216 L 285.314 -9.216 L 288.842 -1.44 C 289.346 -0.432 289.85 0 290.93 0 L 297.194 0 C 298.274 0 298.85 -0.936 298.418 -1.872 L 276.242 -50.328 C 276.026 -50.76 275.738 -51.12 275.018 -51.12 L 274.298 -51.12 C 273.65 -51.12 273.29 -50.76 273.074 -50.328 L 250.682 -1.872 C 250.25 -0.936 250.826 0 251.906 0 Z M 267.314 -17.208 L 274.37 -33.048 L 274.586 -33.048 L 281.786 -17.208 Z" stroke-linecap="round" />
</g>
		<g transform="matrix(1.93 0 0 1.93 -1031.79 208.55)" id="line1"  >
<path style="stroke: none; stroke-width: 1; stroke-dasharray: none; stroke-linecap: butt; stroke-dashoffset: 0; stroke-linejoin: miter; stroke-miterlimit: 4; fill: rgb(113,127,177); fill-rule: nonzero; opacity: 1;" vector-effect="non-scaling-stroke"  transform=" translate(0, 0)" d="" stroke-linecap="round" />
</g>
		<g transform="matrix(1.93 0 0 1.93 -218.23 159.94)" id="line1"  >
<path style="stroke: none; stroke-width: 1; stroke-dasharray: none; stroke-linecap: butt; stroke-dashoffset: 0; stroke-linejoin: miter; stroke-miterlimit: 4; fill: rgb(113,127,177); fill-rule: nonzero; opacity: 1;" vector-effect="non-scaling-stroke"  transform=" translate(-421.75, 25.2)" d="M 393.588 -1.656 C 393.444 -0.648 394.02 0 394.956 0 L 401.436 0 C 402.084 0 402.66 -0.576 402.732 -1.08 L 406.908 -28.368 C 406.98 -28.368 407.124 -28.368 407.124 -28.368 L 419.868 -0.072 C 420.084 0.36 420.444 0.72 421.092 0.72 L 422.388 0.72 C 423.036 0.72 423.468 0.36 423.612 -0.072 L 436.212 -28.368 C 436.212 -28.368 436.356 -28.368 436.428 -28.368 L 440.676 -1.08 C 440.82 -0.576 441.396 0 442.044 0 L 448.596 0 C 449.532 0 450.108 -0.648 449.892 -1.656 L 441.396 -50.04 C 441.324 -50.616 440.892 -51.12 440.1 -51.12 L 438.948 -51.12 C 438.3 -51.12 437.94 -50.832 437.724 -50.4 L 421.884 -16.416 C 421.812 -16.416 421.812 -16.416 421.668 -16.416 L 405.828 -50.4 C 405.612 -50.832 405.18 -51.12 404.604 -51.12 L 403.452 -51.12 C 402.66 -51.12 402.228 -50.616 402.156 -50.04 Z" stroke-linecap="round" />
</g>
		<g transform="matrix(1.93 0 0 1.93 -38.19 159.25)" id="line1"  >
<path style="stroke: none; stroke-width: 1; stroke-dasharray: none; stroke-linecap: butt; stroke-dashoffset: 0; stroke-linejoin: miter; stroke-miterlimit: 4; fill: rgb(113,127,177); fill-rule: nonzero; opacity: 1;" vector-effect="non-scaling-stroke"  transform=" translate(-515.08, 25.56)" d="M 492.437 0 L 498.701 0 C 499.853 0 500.501 -0.72 500.789 -1.44 L 504.317 -9.216 L 525.845 -9.216 L 529.373 -1.44 C 529.877 -0.432 530.381 0 531.461 0 L 537.725 0 C 538.805 0 539.381 -0.936 538.949 -1.872 L 516.773 -50.328 C 516.557 -50.76 516.269 -51.12 515.549 -51.12 L 514.829 -51.12 C 514.181 -51.12 513.821 -50.76 513.605 -50.328 L 491.213 -1.872 C 490.781 -0.936 491.357 0 492.437 0 Z M 507.845 -17.208 L 514.901 -33.048 L 515.117 -33.048 L 522.317 -17.208 Z" stroke-linecap="round" />
</g>
		<g transform="matrix(1.93 0 0 1.93 128.4 159.94)" id="line1"  >
<path style="stroke: none; stroke-width: 1; stroke-dasharray: none; stroke-linecap: butt; stroke-dashoffset: 0; stroke-linejoin: miter; stroke-miterlimit: 4; fill: rgb(113,127,177); fill-rule: nonzero; opacity: 1;" vector-effect="non-scaling-stroke"  transform=" translate(-601.44, 25.2)" d="M 579.478 -25.128 C 579.478 -10.728 591.07 0.72 605.47 0.72 C 611.878 0.72 618.07 -1.512 622.966 -6.264 C 623.47 -6.768 623.614 -7.704 623.038 -8.208 L 618.574 -12.816 C 618.142 -13.248 617.35 -13.32 616.774 -12.816 C 613.75 -10.368 610.078 -8.712 605.758 -8.712 C 596.542 -8.712 589.63 -16.344 589.63 -25.344 C 589.63 -34.416 596.47 -42.12 605.686 -42.12 C 609.718 -42.12 613.75 -40.536 616.774 -37.872 C 617.35 -37.296 618.07 -37.296 618.574 -37.872 L 622.966 -42.408 C 623.542 -42.984 623.542 -43.848 622.894 -44.424 C 617.998 -48.816 612.742 -51.12 605.47 -51.12 C 591.07 -51.12 579.478 -39.528 579.478 -25.128 Z" stroke-linecap="round" />
</g>
		<g transform="matrix(1.93 0 0 1.93 292.33 159.94)" id="line1"  >
<path style="stroke: none; stroke-width: 1; stroke-dasharray: none; stroke-linecap: butt; stroke-dashoffset: 0; stroke-linejoin: miter; stroke-miterlimit: 4; fill: rgb(113,127,177); fill-rule: nonzero; opacity: 1;" vector-effect="non-scaling-stroke"  transform=" translate(-686.43, 25.2)" d="M 670.406 -1.368 C 670.406 -0.648 670.982 0 671.774 0 L 701.078 0 C 701.87 0 702.446 -0.648 702.446 -1.368 L 702.446 -7.272 C 702.446 -7.992 701.87 -8.64 701.078 -8.64 L 679.766 -8.64 L 679.766 -21.24 L 697.55 -21.24 C 698.27 -21.24 698.918 -21.816 698.918 -22.608 L 698.918 -28.584 C 698.918 -29.304 698.27 -29.952 697.55 -29.952 L 679.766 -29.952 L 679.766 -41.76 L 701.078 -41.76 C 701.87 -41.76 702.446 -42.408 702.446 -43.128 L 702.446 -49.032 C 702.446 -49.752 701.87 -50.4 701.078 -50.4 L 671.774 -50.4 C 670.982 -50.4 670.406 -49.752 670.406 -49.032 Z" stroke-linecap="round" />
</g>
		<g transform="matrix(1.93 0 0 1.93 458.5 159.94)" id="line1"  >
<path style="stroke: none; stroke-width: 1; stroke-dasharray: none; stroke-linecap: butt; stroke-dashoffset: 0; stroke-linejoin: miter; stroke-miterlimit: 4; fill: rgb(113,127,177); fill-rule: nonzero; opacity: 1;" vector-effect="non-scaling-stroke"  transform=" translate(-772.57, 25.2)" d="M 750.751 -1.368 C 750.751 -0.648 751.327 0 752.047 0 L 769.111 0 C 783.007 0 794.383 -11.304 794.383 -25.272 C 794.383 -39.096 783.007 -50.4 769.111 -50.4 L 752.047 -50.4 C 751.327 -50.4 750.751 -49.752 750.751 -49.032 Z M 760.039 -8.784 L 760.039 -41.688 L 768.247 -41.688 C 777.607 -41.688 784.447 -34.632 784.447 -25.272 C 784.447 -15.84 777.607 -8.784 768.247 -8.784 Z" stroke-linecap="round" />
</g>
		<g transform="matrix(1.93 0 0 1.93 635.22 159.94)" id="line1"  >
<path style="stroke: none; stroke-width: 1; stroke-dasharray: none; stroke-linecap: butt; stroke-dashoffset: 0; stroke-linejoin: miter; stroke-miterlimit: 4; fill: rgb(113,127,177); fill-rule: nonzero; opacity: 1;" vector-effect="non-scaling-stroke"  transform=" translate(-864.18, 25.2)" d="M 838.296 -25.128 C 838.296 -10.728 849.744 0.72 864.144 0.72 C 878.544 0.72 890.064 -10.728 890.064 -25.128 C 890.064 -39.528 878.544 -51.12 864.144 -51.12 C 849.744 -51.12 838.296 -39.528 838.296 -25.128 Z M 847.656 -25.128 C 847.656 -34.2 855.072 -41.76 864.144 -41.76 C 873.216 -41.76 880.704 -34.2 880.704 -25.128 C 880.704 -16.056 873.216 -8.64 864.144 -8.64 C 855.072 -8.64 847.656 -16.056 847.656 -25.128 Z" stroke-linecap="round" />
</g>
		<g transform="matrix(1.93 0 0 1.93 817.71 159.94)" id="line1"  >
<path style="stroke: none; stroke-width: 1; stroke-dasharray: none; stroke-linecap: butt; stroke-dashoffset: 0; stroke-linejoin: miter; stroke-miterlimit: 4; fill: rgb(113,127,177); fill-rule: nonzero; opacity: 1;" vector-effect="non-scaling-stroke"  transform=" translate(-958.78, 25.2)" d="M 937.505 -1.368 C 937.505 -0.648 938.153 0 938.873 0 L 945.425 0 C 946.217 0 946.793 -0.648 946.793 -1.368 L 946.793 -32.328 L 946.865 -32.328 L 976.961 0.72 L 978.689 0.72 C 979.409 0.72 980.057 0.144 980.057 -0.576 L 980.057 -49.032 C 980.057 -49.752 979.409 -50.4 978.689 -50.4 L 972.065 -50.4 C 971.273 -50.4 970.697 -49.752 970.697 -49.032 L 970.697 -19.296 L 970.625 -19.296 L 940.673 -51.12 L 938.873 -51.12 C 938.153 -51.12 937.505 -50.544 937.505 -49.824 Z" stroke-linecap="round" />
</g>
		<g transform="matrix(1.93 0 0 1.93 988.25 159.94)" id="line1"  >
<path style="stroke: none; stroke-width: 1; stroke-dasharray: none; stroke-linecap: butt; stroke-dashoffset: 0; stroke-linejoin: miter; stroke-miterlimit: 4; fill: rgb(113,127,177); fill-rule: nonzero; opacity: 1;" vector-effect="non-scaling-stroke"  transform=" translate(-1047.19, 25.2)" d="M 1031.17 -1.368 C 1031.17 -0.648 1031.746 0 1032.538 0 L 1061.842 0 C 1062.634 0 1063.21 -0.648 1063.21 -1.368 L 1063.21 -7.272 C 1063.21 -7.992 1062.634 -8.64 1061.842 -8.64 L 1040.53 -8.64 L 1040.53 -21.24 L 1058.314 -21.24 C 1059.034 -21.24 1059.682 -21.816 1059.682 -22.608 L 1059.682 -28.584 C 1059.682 -29.304 1059.034 -29.952 1058.314 -29.952 L 1040.53 -29.952 L 1040.53 -41.76 L 1061.842 -41.76 C 1062.634 -41.76 1063.21 -42.408 1063.21 -43.128 L 1063.21 -49.032 C 1063.21 -49.752 1062.634 -50.4 1061.842 -50.4 L 1032.538 -50.4 C 1031.746 -50.4 1031.17 -49.752 1031.17 -49.032 Z" stroke-linecap="round" />
</g>
		<g transform="matrix(2.5 0 0 2.5 0 -84.94)" id="logomark"  >
<path style="stroke: none; stroke-width: 1; stroke-dasharray: none; stroke-linecap: butt; stroke-dashoffset: 0; stroke-linejoin: miter; stroke-miterlimit: 4; fill: rgb(113,127,177); fill-rule: nonzero; opacity: 1;" vector-effect="non-scaling-stroke"  transform=" translate(-50, -50)" d="M 86.207 14.803 L 71.403 0 L 13.793000000000006 0 L 13.793000000000006 94.827 C 13.793000000000006 97.77499999999999 17.499000000000006 100 22.413000000000004 100 C 27.328000000000003 100 31.034000000000006 97.775 31.034000000000006 94.827 L 31.034000000000006 19.68 L 41.379000000000005 30.025 L 41.379000000000005 94.828 C 41.379000000000005 97.776 45.08500000000001 100.001 50.00000000000001 100.001 C 54.91400000000001 100.001 58.620000000000005 97.77600000000001 58.620000000000005 94.828 L 58.620000000000005 13.793 L 27.586 13.793 L 27.586 90.64099999999999 C 26.162999999999997 90.02 24.389999999999997 89.65599999999999 22.412999999999997 89.65599999999999 C 20.437999999999995 89.65599999999999 18.663999999999998 90.02 17.240999999999996 90.64099999999999 L 17.240999999999996 3.448 L 68.966 3.448 L 68.966 94.827 C 68.966 97.77499999999999 72.67099999999999 100 77.586 100 C 82.5 100 86.207 97.775 86.207 94.827 L 86.207 14.803 z M 55.172 90.641 C 53.748999999999995 90.02000000000001 51.974999999999994 89.656 50 89.656 C 48.023 89.656 46.25 90.02000000000001 44.827 90.641 L 44.827 31.034 L 55.172 31.034 L 55.172 90.64099999999999 z M 50 96.552 C 46.662 96.552 44.827 95.256 44.827 94.82700000000001 C 44.827 94.39800000000002 46.662 93.10300000000001 50 93.10300000000001 C 53.338 93.10300000000001 55.172 94.39800000000001 55.172 94.82700000000001 C 55.172 95.25600000000001 53.337999999999994 96.552 50 96.552 z M 55.172 27.586000000000013 L 43.817 27.586000000000013 L 33.473 17.241 L 55.172 17.241 L 55.172 27.586 z M 22.413 93.104 C 25.751 93.104 27.586 94.399 27.586 94.828 C 27.586 95.257 25.750999999999998 96.553 22.412999999999997 96.553 C 19.074999999999996 96.553 17.240999999999996 95.25699999999999 17.240999999999996 94.828 C 17.240999999999996 94.39900000000002 19.074999999999996 93.104 22.412999999999997 93.104 z M 82.759 16.230999999999995 L 82.759 90.64 C 81.336 90.019 79.562 89.655 77.586 89.655 C 75.61 89.655 73.836 90.019 72.414 90.64 L 72.414 5.886 L 82.759 16.231 z M 77.586 96.55199999999999 C 74.248 96.55199999999999 72.414 95.25599999999999 72.414 94.827 C 72.414 94.39800000000001 74.248 93.103 77.586 93.103 C 80.923 93.103 82.759 94.398 82.759 94.827 C 82.759 95.256 80.923 96.55199999999999 77.586 96.55199999999999 z" stroke-linecap="round" />
</g>
</g>
</g>
<g transform="matrix(NaN NaN NaN NaN 0 0)"  >
<g style=""   >
</g>
</g>
<g transform="matrix(NaN NaN NaN NaN 0 0)"  >
<g style=""   >
</g>
</g>
</svg>