<?xml version="1.0" encoding="UTF-8" standalone="no" ?>
<!DOCTYPE svg PUBLIC "-//W3C//DTD SVG 1.1//EN" "http://www.w3.org/Graphics/SVG/1.1/DTD/svg11.dtd">
<svg xmlns="http://www.w3.org/2000/svg" xmlns:xlink="http://www.w3.org/1999/xlink" version="1.1" width="1080" height="1080" viewBox="0 0 1080 1080" xml:space="preserve">
<desc>Created with Fabric.js 5.2.4</desc>
<defs>
</defs>
<rect x="0" y="0" width="100%" height="100%" fill="transparent"></rect>
<g transform="matrix(1 0 0 1 540 540)" id="760a5d3d-dd12-4fda-8d2e-86db1e05419f"  >
<rect style="stroke: none; stroke-width: 1; stroke-dasharray: none; stroke-linecap: butt; stroke-dashoffset: 0; stroke-linejoin: miter; stroke-miterlimit: 4; fill: #717FB1; fill-rule: nonzero; opacity: 1; visibility: hidden;" vector-effect="non-scaling-stroke"  x="-540" y="-540" rx="0" ry="0" width="1080" height="1080" />
</g>
<g transform="matrix(1 0 0 1 540 540)" id="0e624d57-b96f-4e6b-aedb-2ac317c72573"  >
</g>
<g transform="matrix(NaN NaN NaN NaN 0 0)"  >
<g style=""   >
</g>
</g>
<g transform="matrix(NaN NaN NaN NaN 0 0)"  >
<g style=""   >
</g>
</g>
<g transform="matrix(NaN NaN NaN NaN 0 0)"  >
<g style=""   >
</g>
</g>
<g transform="matrix(NaN NaN NaN NaN 0 0)"  >
<g style=""   >
		<g transform="matrix(0.49 0 0 0.49 0 0)" id="container"  >
<circle style="stroke: none; stroke-width: 1; stroke-dasharray: none; stroke-linecap: butt; stroke-dashoffset: 0; stroke-linejoin: miter; stroke-miterlimit: 4; fill: #717FB1; fill-rule: nonzero; opacity: 1;" vector-effect="non-scaling-stroke"  cx="0" cy="0" r="50" />
</g>
		<g transform="matrix(0.29 0 0 0.29 0.14 -0.25)" id="icon"  >
<path style="stroke: none; stroke-width: 1; stroke-dasharray: none; stroke-linecap: butt; stroke-dashoffset: 0; stroke-linejoin: miter; stroke-miterlimit: 4; fill: rgb(255,255,255); fill-rule: nonzero; opacity: 1;" vector-effect="non-scaling-stroke"  transform=" translate(-50, -50)" d="M 86.207 14.803 L 71.403 0 L 13.793000000000006 0 L 13.793000000000006 94.827 C 13.793000000000006 97.77499999999999 17.499000000000006 100 22.413000000000004 100 C 27.328000000000003 100 31.034000000000006 97.775 31.034000000000006 94.827 L 31.034000000000006 19.68 L 41.379000000000005 30.025 L 41.379000000000005 94.828 C 41.379000000000005 97.776 45.08500000000001 100.001 50.00000000000001 100.001 C 54.91400000000001 100.001 58.620000000000005 97.77600000000001 58.620000000000005 94.828 L 58.620000000000005 13.793 L 27.586 13.793 L 27.586 90.64099999999999 C 26.162999999999997 90.02 24.389999999999997 89.65599999999999 22.412999999999997 89.65599999999999 C 20.437999999999995 89.65599999999999 18.663999999999998 90.02 17.240999999999996 90.64099999999999 L 17.240999999999996 3.448 L 68.966 3.448 L 68.966 94.827 C 68.966 97.77499999999999 72.67099999999999 100 77.586 100 C 82.5 100 86.207 97.775 86.207 94.827 L 86.207 14.803 z M 55.172 90.641 C 53.748999999999995 90.02000000000001 51.974999999999994 89.656 50 89.656 C 48.023 89.656 46.25 90.02000000000001 44.827 90.641 L 44.827 31.034 L 55.172 31.034 L 55.172 90.64099999999999 z M 50 96.552 C 46.662 96.552 44.827 95.256 44.827 94.82700000000001 C 44.827 94.39800000000002 46.662 93.10300000000001 50 93.10300000000001 C 53.338 93.10300000000001 55.172 94.39800000000001 55.172 94.82700000000001 C 55.172 95.25600000000001 53.337999999999994 96.552 50 96.552 z M 55.172 27.586000000000013 L 43.817 27.586000000000013 L 33.473 17.241 L 55.172 17.241 L 55.172 27.586 z M 22.413 93.104 C 25.751 93.104 27.586 94.399 27.586 94.828 C 27.586 95.257 25.750999999999998 96.553 22.412999999999997 96.553 C 19.074999999999996 96.553 17.240999999999996 95.25699999999999 17.240999999999996 94.828 C 17.240999999999996 94.39900000000002 19.074999999999996 93.104 22.412999999999997 93.104 z M 82.759 16.230999999999995 L 82.759 90.64 C 81.336 90.019 79.562 89.655 77.586 89.655 C 75.61 89.655 73.836 90.019 72.414 90.64 L 72.414 5.886 L 82.759 16.231 z M 77.586 96.55199999999999 C 74.248 96.55199999999999 72.414 95.25599999999999 72.414 94.827 C 72.414 94.39800000000001 74.248 93.103 77.586 93.103 C 80.923 93.103 82.759 94.398 82.759 94.827 C 82.759 95.256 80.923 96.55199999999999 77.586 96.55199999999999 z" stroke-linecap="round" />
</g>
</g>
</g>
<g transform="matrix(NaN NaN NaN NaN 0 0)"  >
<g style=""   >
</g>
</g>
<g transform="matrix(21.6 0 0 21.6 540 540)"  >
<g style=""   >
		<g transform="matrix(0.49 0 0 0.49 0 0)" id="container"  >
<circle style="stroke: none; stroke-width: 1; stroke-dasharray: none; stroke-linecap: butt; stroke-dashoffset: 0; stroke-linejoin: miter; stroke-miterlimit: 4; fill: #717FB1; fill-rule: nonzero; opacity: 1;" vector-effect="non-scaling-stroke"  cx="0" cy="0" r="50" />
</g>
		<g transform="matrix(0.29 0 0 0.29 0.14 -0.25)" id="icon"  >
<path style="stroke: none; stroke-width: 1; stroke-dasharray: none; stroke-linecap: butt; stroke-dashoffset: 0; stroke-linejoin: miter; stroke-miterlimit: 4; fill: rgb(255,255,255); fill-rule: nonzero; opacity: 1;" vector-effect="non-scaling-stroke"  transform=" translate(-50, -50)" d="M 86.207 14.803 L 71.403 0 L 13.793000000000006 0 L 13.793000000000006 94.827 C 13.793000000000006 97.77499999999999 17.499000000000006 100 22.413000000000004 100 C 27.328000000000003 100 31.034000000000006 97.775 31.034000000000006 94.827 L 31.034000000000006 19.68 L 41.379000000000005 30.025 L 41.379000000000005 94.828 C 41.379000000000005 97.776 45.08500000000001 100.001 50.00000000000001 100.001 C 54.91400000000001 100.001 58.620000000000005 97.77600000000001 58.620000000000005 94.828 L 58.620000000000005 13.793 L 27.586 13.793 L 27.586 90.64099999999999 C 26.162999999999997 90.02 24.389999999999997 89.65599999999999 22.412999999999997 89.65599999999999 C 20.437999999999995 89.65599999999999 18.663999999999998 90.02 17.240999999999996 90.64099999999999 L 17.240999999999996 3.448 L 68.966 3.448 L 68.966 94.827 C 68.966 97.77499999999999 72.67099999999999 100 77.586 100 C 82.5 100 86.207 97.775 86.207 94.827 L 86.207 14.803 z M 55.172 90.641 C 53.748999999999995 90.02000000000001 51.974999999999994 89.656 50 89.656 C 48.023 89.656 46.25 90.02000000000001 44.827 90.641 L 44.827 31.034 L 55.172 31.034 L 55.172 90.64099999999999 z M 50 96.552 C 46.662 96.552 44.827 95.256 44.827 94.82700000000001 C 44.827 94.39800000000002 46.662 93.10300000000001 50 93.10300000000001 C 53.338 93.10300000000001 55.172 94.39800000000001 55.172 94.82700000000001 C 55.172 95.25600000000001 53.337999999999994 96.552 50 96.552 z M 55.172 27.586000000000013 L 43.817 27.586000000000013 L 33.473 17.241 L 55.172 17.241 L 55.172 27.586 z M 22.413 93.104 C 25.751 93.104 27.586 94.399 27.586 94.828 C 27.586 95.257 25.750999999999998 96.553 22.412999999999997 96.553 C 19.074999999999996 96.553 17.240999999999996 95.25699999999999 17.240999999999996 94.828 C 17.240999999999996 94.39900000000002 19.074999999999996 93.104 22.412999999999997 93.104 z M 82.759 16.230999999999995 L 82.759 90.64 C 81.336 90.019 79.562 89.655 77.586 89.655 C 75.61 89.655 73.836 90.019 72.414 90.64 L 72.414 5.886 L 82.759 16.231 z M 77.586 96.55199999999999 C 74.248 96.55199999999999 72.414 95.25599999999999 72.414 94.827 C 72.414 94.39800000000001 74.248 93.103 77.586 93.103 C 80.923 93.103 82.759 94.398 82.759 94.827 C 82.759 95.256 80.923 96.55199999999999 77.586 96.55199999999999 z" stroke-linecap="round" />
</g>
</g>
</g>
<g transform="matrix(NaN NaN NaN NaN 0 0)"  >
<g style=""   >
</g>
</g>
</svg>