<svg xmlns="http://www.w3.org/2000/svg" xmlns:xlink="http://www.w3.org/1999/xlink" width="1584" zoomAndPan="magnify" viewBox="0 0 1188 296.999993" height="396" preserveAspectRatio="xMidYMid meet" version="1.0"><path fill="#717fb1" d="M 174.082031 171.265625 C 174.082031 171.941406 174.621094 172.546875 175.363281 172.546875 L 200.03125 172.546875 C 200.773438 172.546875 201.3125 171.941406 201.3125 171.265625 L 201.3125 165.734375 C 201.3125 165.058594 200.773438 164.453125 200.03125 164.453125 L 182.84375 164.453125 L 182.84375 126.617188 C 182.84375 125.945312 182.238281 125.335938 181.566406 125.335938 L 175.363281 125.335938 C 174.621094 125.335938 174.082031 125.945312 174.082031 126.617188 Z M 174.082031 171.265625 " fill-opacity="1" fill-rule="nonzero"/><path fill="#717fb1" d="M 242.324219 154.675781 C 242.324219 164.925781 250.480469 173.222656 261.0625 173.222656 C 271.710938 173.222656 279.867188 164.925781 279.867188 154.675781 L 279.867188 126.617188 C 279.867188 125.945312 279.257812 125.335938 278.585938 125.335938 L 272.183594 125.335938 C 271.441406 125.335938 270.902344 125.945312 270.902344 126.617188 L 270.902344 154.269531 C 270.902344 159.933594 266.925781 164.453125 261.0625 164.453125 C 255.199219 164.453125 251.289062 159.933594 251.289062 154.203125 L 251.289062 126.617188 C 251.289062 125.945312 250.75 125.335938 250.007812 125.335938 L 243.605469 125.335938 C 242.929688 125.335938 242.324219 125.945312 242.324219 126.617188 Z M 242.324219 154.675781 " fill-opacity="1" fill-rule="nonzero"/><path fill="#717fb1" d="M 323.558594 149.007812 C 323.558594 162.496094 334.410156 173.222656 347.890625 173.222656 C 353.890625 173.222656 359.6875 171.128906 364.269531 166.679688 C 364.742188 166.207031 364.875 165.332031 364.335938 164.859375 L 360.15625 160.542969 C 359.753906 160.136719 359.011719 160.070312 358.472656 160.542969 C 355.640625 162.835938 352.203125 164.386719 348.160156 164.386719 C 339.535156 164.386719 333.0625 157.238281 333.0625 148.808594 C 333.0625 140.308594 339.464844 133.09375 348.09375 133.09375 C 351.867188 133.09375 355.640625 134.578125 358.472656 137.070312 C 359.011719 137.609375 359.6875 137.609375 360.15625 137.070312 L 364.269531 132.824219 C 364.808594 132.285156 364.808594 131.472656 364.203125 130.933594 C 359.617188 126.820312 354.699219 124.664062 347.890625 124.664062 C 334.410156 124.664062 323.558594 135.519531 323.558594 149.007812 Z M 323.558594 149.007812 " fill-opacity="1" fill-rule="nonzero"/><path fill="#717fb1" d="M 403.644531 172.546875 L 409.507812 172.546875 C 410.585938 172.546875 411.195312 171.871094 411.464844 171.199219 L 414.765625 163.914062 L 434.917969 163.914062 L 438.222656 171.199219 C 438.691406 172.140625 439.164062 172.546875 440.175781 172.546875 L 446.039062 172.546875 C 447.050781 172.546875 447.589844 171.667969 447.183594 170.792969 L 426.425781 125.402344 C 426.222656 125 425.953125 124.664062 425.28125 124.664062 L 424.605469 124.664062 C 424 124.664062 423.664062 125 423.460938 125.402344 L 402.5 170.792969 C 402.09375 171.667969 402.632812 172.546875 403.644531 172.546875 Z M 418.070312 156.429688 L 424.675781 141.589844 L 424.875 141.589844 L 431.617188 156.429688 Z M 418.070312 156.429688 " fill-opacity="1" fill-rule="nonzero"/><path fill="#717fb1" d="M 536.210938 170.996094 C 536.074219 171.941406 536.613281 172.546875 537.488281 172.546875 L 543.554688 172.546875 C 544.160156 172.546875 544.703125 172.007812 544.769531 171.535156 L 548.679688 145.972656 C 548.746094 145.972656 548.878906 145.972656 548.878906 145.972656 L 560.808594 172.480469 C 561.011719 172.882812 561.347656 173.222656 561.957031 173.222656 L 563.167969 173.222656 C 563.773438 173.222656 564.179688 172.882812 564.3125 172.480469 L 576.109375 145.972656 C 576.109375 145.972656 576.242188 145.972656 576.3125 145.972656 L 580.289062 171.535156 C 580.421875 172.007812 580.960938 172.546875 581.570312 172.546875 L 587.703125 172.546875 C 588.578125 172.546875 589.117188 171.941406 588.914062 170.996094 L 580.960938 125.675781 C 580.894531 125.132812 580.492188 124.664062 579.75 124.664062 L 578.671875 124.664062 C 578.0625 124.664062 577.726562 124.933594 577.523438 125.335938 L 562.695312 157.167969 C 562.628906 157.167969 562.628906 157.167969 562.496094 157.167969 L 547.667969 125.335938 C 547.464844 124.933594 547.058594 124.664062 546.519531 124.664062 L 545.441406 124.664062 C 544.703125 124.664062 544.296875 125.132812 544.230469 125.675781 Z M 536.210938 170.996094 " fill-opacity="1" fill-rule="nonzero"/><path fill="#717fb1" d="M 628.691406 172.546875 L 634.554688 172.546875 C 635.636719 172.546875 636.242188 171.871094 636.511719 171.199219 L 639.8125 163.914062 L 659.964844 163.914062 L 663.269531 171.199219 C 663.742188 172.140625 664.210938 172.546875 665.222656 172.546875 L 671.085938 172.546875 C 672.097656 172.546875 672.636719 171.667969 672.234375 170.792969 L 651.472656 125.402344 C 651.269531 125 651 124.664062 650.328125 124.664062 L 649.652344 124.664062 C 649.046875 124.664062 648.710938 125 648.507812 125.402344 L 627.546875 170.792969 C 627.140625 171.667969 627.683594 172.546875 628.691406 172.546875 Z M 643.117188 156.429688 L 649.722656 141.589844 L 649.921875 141.589844 L 656.664062 156.429688 Z M 643.117188 156.429688 " fill-opacity="1" fill-rule="nonzero"/><path fill="#717fb1" d="M 710.136719 149.007812 C 710.136719 162.496094 720.988281 173.222656 734.464844 173.222656 C 740.464844 173.222656 746.261719 171.128906 750.84375 166.679688 C 751.316406 166.207031 751.449219 165.332031 750.910156 164.859375 L 746.734375 160.542969 C 746.328125 160.136719 745.585938 160.070312 745.046875 160.542969 C 742.21875 162.835938 738.78125 164.386719 734.734375 164.386719 C 726.109375 164.386719 719.636719 157.238281 719.636719 148.808594 C 719.636719 140.308594 726.042969 133.09375 734.667969 133.09375 C 738.441406 133.09375 742.21875 134.578125 745.046875 137.070312 C 745.585938 137.609375 746.261719 137.609375 746.734375 137.070312 L 750.84375 132.824219 C 751.382812 132.285156 751.382812 131.472656 750.777344 130.933594 C 746.195312 126.820312 741.273438 124.664062 734.464844 124.664062 C 720.988281 124.664062 710.136719 135.519531 710.136719 149.007812 Z M 710.136719 149.007812 " fill-opacity="1" fill-rule="nonzero"/><path fill="#717fb1" d="M 795.199219 171.265625 C 795.199219 171.941406 795.738281 172.546875 796.480469 172.546875 L 823.910156 172.546875 C 824.652344 172.546875 825.191406 171.941406 825.191406 171.265625 L 825.191406 165.734375 C 825.191406 165.058594 824.652344 164.453125 823.910156 164.453125 L 803.960938 164.453125 L 803.960938 152.652344 L 820.609375 152.652344 C 821.285156 152.652344 821.890625 152.113281 821.890625 151.371094 L 821.890625 145.773438 C 821.890625 145.097656 821.285156 144.492188 820.609375 144.492188 L 803.960938 144.492188 L 803.960938 133.429688 L 823.910156 133.429688 C 824.652344 133.429688 825.191406 132.824219 825.191406 132.148438 L 825.191406 126.617188 C 825.191406 125.945312 824.652344 125.335938 823.910156 125.335938 L 796.480469 125.335938 C 795.738281 125.335938 795.199219 125.945312 795.199219 126.617188 Z M 795.199219 171.265625 " fill-opacity="1" fill-rule="nonzero"/><path fill="#717fb1" d="M 870.371094 171.265625 C 870.371094 171.941406 870.910156 172.546875 871.582031 172.546875 L 887.558594 172.546875 C 900.566406 172.546875 911.214844 161.957031 911.214844 148.875 C 911.214844 135.925781 900.566406 125.335938 887.558594 125.335938 L 871.582031 125.335938 C 870.910156 125.335938 870.371094 125.945312 870.371094 126.617188 Z M 879.066406 164.320312 L 879.066406 133.496094 L 886.75 133.496094 C 895.511719 133.496094 901.914062 140.105469 901.914062 148.875 C 901.914062 157.710938 895.511719 164.320312 886.75 164.320312 Z M 879.066406 164.320312 " fill-opacity="1" fill-rule="nonzero"/><path fill="#717fb1" d="M 952.285156 149.007812 C 952.285156 162.496094 963 173.222656 976.480469 173.222656 C 989.960938 173.222656 1000.746094 162.496094 1000.746094 149.007812 C 1000.746094 135.519531 989.960938 124.664062 976.480469 124.664062 C 963 124.664062 952.285156 135.519531 952.285156 149.007812 Z M 961.046875 149.007812 C 961.046875 140.511719 967.988281 133.429688 976.480469 133.429688 C 984.972656 133.429688 991.984375 140.511719 991.984375 149.007812 C 991.984375 157.507812 984.972656 164.453125 976.480469 164.453125 C 967.988281 164.453125 961.046875 157.507812 961.046875 149.007812 Z M 961.046875 149.007812 " fill-opacity="1" fill-rule="nonzero"/><path fill="#717fb1" d="M 1045.105469 171.265625 C 1045.105469 171.941406 1045.710938 172.546875 1046.386719 172.546875 L 1052.519531 172.546875 C 1053.261719 172.546875 1053.800781 171.941406 1053.800781 171.265625 L 1053.800781 142.265625 L 1053.867188 142.265625 L 1082.039062 173.222656 L 1083.65625 173.222656 C 1084.332031 173.222656 1084.9375 172.679688 1084.9375 172.007812 L 1084.9375 126.617188 C 1084.9375 125.945312 1084.332031 125.335938 1083.65625 125.335938 L 1077.457031 125.335938 C 1076.714844 125.335938 1076.175781 125.945312 1076.175781 126.617188 L 1076.175781 154.472656 L 1076.109375 154.472656 L 1048.070312 124.664062 L 1046.386719 124.664062 C 1045.710938 124.664062 1045.105469 125.203125 1045.105469 125.875 Z M 1045.105469 171.265625 " fill-opacity="1" fill-rule="nonzero"/><path fill="#717fb1" d="M 1132.738281 171.265625 C 1132.738281 171.941406 1133.277344 172.546875 1134.019531 172.546875 L 1161.453125 172.546875 C 1162.195312 172.546875 1162.734375 171.941406 1162.734375 171.265625 L 1162.734375 165.734375 C 1162.734375 165.058594 1162.195312 164.453125 1161.453125 164.453125 L 1141.503906 164.453125 L 1141.503906 152.652344 L 1158.148438 152.652344 C 1158.824219 152.652344 1159.429688 152.113281 1159.429688 151.371094 L 1159.429688 145.773438 C 1159.429688 145.097656 1158.824219 144.492188 1158.148438 144.492188 L 1141.503906 144.492188 L 1141.503906 133.429688 L 1161.453125 133.429688 C 1162.195312 133.429688 1162.734375 132.824219 1162.734375 132.148438 L 1162.734375 126.617188 C 1162.734375 125.945312 1162.195312 125.335938 1161.453125 125.335938 L 1134.019531 125.335938 C 1133.277344 125.335938 1132.738281 125.945312 1132.738281 126.617188 Z M 1132.738281 171.265625 " fill-opacity="1" fill-rule="nonzero"/><path fill="#717fb1" d="M 102.933594 110.449219 L 88.472656 95.980469 L 32.199219 95.980469 L 32.199219 188.667969 C 32.199219 191.550781 35.820312 193.722656 40.621094 193.722656 C 45.421875 193.722656 49.042969 191.550781 49.042969 188.667969 L 49.042969 115.21875 L 59.148438 125.328125 L 59.148438 188.667969 C 59.148438 191.550781 62.765625 193.726562 67.566406 193.726562 C 72.367188 193.726562 75.988281 191.550781 75.988281 188.667969 L 75.988281 109.460938 L 45.675781 109.460938 L 45.675781 184.578125 C 44.285156 183.96875 42.550781 183.613281 40.621094 183.613281 C 38.691406 183.613281 36.957031 183.96875 35.570312 184.578125 L 35.570312 99.351562 L 86.09375 99.351562 L 86.09375 188.667969 C 86.09375 191.550781 89.714844 193.722656 94.515625 193.722656 C 99.3125 193.722656 102.933594 191.550781 102.933594 188.667969 Z M 72.621094 184.578125 C 71.230469 183.96875 69.496094 183.613281 67.566406 183.613281 C 65.636719 183.613281 63.90625 183.96875 62.515625 184.578125 L 62.515625 126.316406 L 72.621094 126.316406 Z M 67.566406 190.355469 C 64.308594 190.355469 62.515625 189.085938 62.515625 188.667969 C 62.515625 188.25 64.308594 186.984375 67.566406 186.984375 C 70.828125 186.984375 72.621094 188.25 72.621094 188.667969 C 72.621094 189.085938 70.828125 190.355469 67.566406 190.355469 Z M 72.621094 122.945312 L 61.527344 122.945312 L 51.425781 112.832031 L 72.621094 112.832031 Z M 40.621094 186.984375 C 43.882812 186.984375 45.675781 188.25 45.675781 188.667969 C 45.675781 189.089844 43.882812 190.355469 40.621094 190.355469 C 37.359375 190.355469 35.570312 189.089844 35.570312 188.667969 C 35.570312 188.25 37.359375 186.984375 40.621094 186.984375 Z M 99.566406 111.847656 L 99.566406 184.574219 C 98.175781 183.96875 96.445312 183.613281 94.515625 183.613281 C 92.582031 183.613281 90.851562 183.96875 89.460938 184.574219 L 89.460938 101.734375 Z M 94.515625 190.355469 C 91.253906 190.355469 89.460938 189.085938 89.460938 188.667969 C 89.460938 188.25 91.253906 186.984375 94.515625 186.984375 C 97.773438 186.984375 99.566406 188.25 99.566406 188.667969 C 99.566406 189.085938 97.773438 190.355469 94.515625 190.355469 Z M 94.515625 190.355469 " fill-opacity="1" fill-rule="nonzero"/></svg>